HIERARCHY
ROOT hip
{
	OFFSET	0.00  0.00  0.00 
	CHANNELS 6 Xposition Yposition Zposition Xrotation Zrotation Yrotation
	JOINT abdomen
	{
		OFFSET	0.000000 0.000000 0.000000
		CHANNELS 3 Xrotation Zrotation Yrotation
		JOINT chest
		{
			OFFSET	0.000000 5.018152 -1.882228
			CHANNELS 3 Xrotation Zrotation Yrotation
			JOINT neckDummy
			{
				OFFSET	0.000000 8.316447 0.784897
				CHANNELS 3 Xrotation Yrotation Zrotation
				JOINT neck
				{
					OFFSET	0.000000 2.280413 -0.392801
					CHANNELS 3 Xrotation Zrotation Yrotation
					JOINT head
					{
						OFFSET	0.000000 3.496879 0.529469
						CHANNELS 3 Xrotation Zrotation Yrotation
						JOINT figureHair
						{
							OFFSET	0.000000 4.699570 0.720622
							CHANNELS 3 Zrotation Yrotation Xrotation
							End Site
							{
								OFFSET 0.000000 -6.419331 0.000000
							}
						}
					}
				}
			}
			JOINT lCollar
			{
				OFFSET	0.599237 8.316447 0.784897
				CHANNELS 3 Yrotation Zrotation Xrotation
				JOINT lShldr
				{
					OFFSET	6.421198 0.010146 -0.332128
					CHANNELS 3 Zrotation Yrotation Xrotation
					JOINT lForeArm
					{
						OFFSET	10.552783 0.025574 0.125508
						CHANNELS 3 Yrotation Zrotation Xrotation
						JOINT lHand
						{
							OFFSET	11.035963 0.319619 0.041520
							CHANNELS 3 Zrotation Yrotation Xrotation
							End Site
							{
								OFFSET 10.353753 0.000000 0.000000
							}
						}
					}
				}
			}
			JOINT rCollar
			{
				OFFSET	-0.599237 8.316447 0.784897
				CHANNELS 3 Yrotation Zrotation Xrotation
				JOINT rShldr
				{
					OFFSET	-6.421198 0.010146 -0.332128
					CHANNELS 3 Zrotation Yrotation Xrotation
					JOINT rForeArm
					{
						OFFSET	-10.552783 0.025574 0.125508
						CHANNELS 3 Yrotation Zrotation Xrotation
						JOINT rHand
						{
							OFFSET	-11.035963 0.319619 0.041520
							CHANNELS 3 Zrotation Yrotation Xrotation
							End Site
							{
								OFFSET -10.353753 0.000000 0.000000
							}
						}
					}
				}
			}
		}
	}
	JOINT lThigh
	{
		OFFSET	4.500466 -6.400484 -1.832696
		CHANNELS 3 Xrotation Zrotation Yrotation
		JOINT lShin
		{
			OFFSET	-1.359117 -18.918689 1.179887
			CHANNELS 3 Xrotation Zrotation Yrotation
			JOINT lFoot
			{
				OFFSET	-0.652380 -17.215186 -0.312137
				CHANNELS 3 Xrotation Yrotation Zrotation
				End Site
				{
					OFFSET 0.000000 0.000000 10.353752
				}
			}
		}
	}
	JOINT rThigh
	{
		OFFSET	-4.500466 -6.400484 -1.832696
		CHANNELS 3 Xrotation Zrotation Yrotation
		JOINT rShin
		{
			OFFSET	1.359117 -18.918689 1.179887
			CHANNELS 3 Xrotation Zrotation Yrotation
			JOINT rFoot
			{
				OFFSET	0.652380 -17.215186 -0.312137
				CHANNELS 3 Xrotation Yrotation Zrotation
				End Site
				{
					OFFSET 0.000000 0.000000 10.353752
				}
			}
		}
	}
}
MOTION
Frames:     15
Frame Time: 0.200000
0.000000 42.014908 0.240040 -2.372530 0.628675 2.030900 0.000000 0.000000 0.000000 0.000000 0.000000 0.000000 0.000000 0.000000 0.000000 4.255910 5.901290 -2.086650 -0.911180 0.055734 7.189230 0.000000 0.000000 0.000000 14.689500 -0.245973 1.906740 -79.566299 8.542540 6.729740 -18.124800 2.169460 29.688299 6.828020 9.255670 1.239640 -16.257099 0.628437 -5.404400 76.767700 1.376090 20.387300 12.876700 5.450230 -9.319750 -9.247010 -2.941850 7.280370 -4.278170 -1.509450 -1.801410 11.382500 -0.611263 -3.716680 45.359402 10.585000 -7.724310 -9.921730 0.190525 -3.735800 13.216500 -1.416100 1.535560 48.226299 -3.120090 0.724222 
0.000000 42.014908 0.240040 -2.372530 0.628675 2.030900 0.000000 0.000000 0.000000 0.000000 0.000000 0.000000 0.000000 0.000000 0.000000 4.255910 5.901290 -2.086650 -0.911180 0.055734 7.189230 0.000000 0.000000 0.000000 14.689500 -0.245973 1.906740 -80.122383 8.575699 6.656775 -18.155943 1.883982 29.693819 6.655653 9.139287 1.210684 -16.257099 0.628437 -5.404400 76.541183 1.586623 20.376247 12.789328 5.832343 -9.316506 -9.247010 -2.941850 7.280370 -4.230633 -1.380333 -1.798936 11.738943 -0.706051 -3.737394 45.359402 10.585000 -7.724310 -9.831048 0.023512 -3.745009 13.762064 -1.632652 1.525042 48.226299 -3.120090 0.724222 
0.000000 42.014908 0.240040 -2.372530 0.628675 2.030900 0.000000 0.000000 0.000000 0.000000 0.000000 0.000000 0.000000 0.000000 0.000000 4.255910 5.901290 -2.086650 -0.911180 0.055734 7.189230 0.000000 0.000000 0.000000 14.689500 -0.245973 1.906740 -80.844147 8.699496 6.560597 -18.195063 1.525397 29.700756 6.439147 8.993101 1.174313 -16.257099 0.628437 -5.404400 76.267906 1.893225 20.363016 12.679580 6.312309 -9.312432 -9.247010 -2.941850 7.280370 -4.164693 -1.238971 -1.797159 12.249867 -0.841920 -3.767086 45.359402 10.585000 -7.724310 -9.716805 -0.166624 -3.754929 14.544074 -1.943058 1.509966 48.226299 -3.120090 0.724222 
0.000000 42.014908 0.240040 -2.372530 0.628675 2.030900 0.000000 0.000000 0.000000 0.000000 0.000000 0.000000 0.000000 0.000000 0.000000 4.255909 5.901290 -2.086650 -0.911180 0.055734 7.189230 0.000000 0.000000 0.000000 14.689499 -0.245973 1.906740 -81.566628 8.772882 6.465246 -18.235048 1.158888 29.707846 6.217856 8.843684 1.137138 -16.257099 0.628437 -5.404400 75.981392 2.179268 20.349073 12.567408 6.802882 -9.308270 -9.247010 -2.941850 7.280370 -4.101341 -1.081060 -1.794483 12.860124 -1.004205 -3.802550 45.359402 10.584999 -7.724309 -9.600286 -0.373617 -3.766131 15.478120 -2.313812 1.491958 48.226295 -3.120090 0.724222 
0.000000 42.014908 0.240040 -2.372530 0.628675 2.030900 0.000000 0.000000 0.000000 0.000000 0.000000 0.000000 0.000000 0.000000 0.000000 4.255910 5.901291 -2.086650 -0.911180 0.055734 7.189231 0.000000 0.000000 0.000000 14.689502 -0.245973 1.906740 -82.125900 8.582771 6.395945 -18.270014 0.838417 29.714043 6.024361 8.713034 1.104633 -16.257101 0.628437 -5.404400 75.696220 2.298739 20.334867 12.469324 7.231833 -9.304627 -9.247010 -2.941850 7.280370 -4.065264 -0.878641 -1.788031 13.508988 -1.176756 -3.840258 45.359409 10.585000 -7.724310 -9.499523 -0.615286 -3.781022 16.471256 -2.708020 1.472811 48.226299 -3.120090 0.724222 
0.000000 42.014908 0.240040 -2.372530 0.628675 2.030900 0.000000 0.000000 0.000000 0.000000 0.000000 0.000000 0.000000 0.000000 0.000000 4.255910 5.901292 -2.086651 -0.911180 0.055734 7.189232 0.000000 0.000000 0.000000 14.689503 -0.245973 1.906740 -82.358017 7.916078 6.377917 -18.294064 0.617948 29.718296 5.891245 8.623152 1.082271 -16.257101 0.628437 -5.404400 75.426994 2.105628 20.320848 12.401846 7.526931 -9.302121 -9.247010 -2.941850 7.280370 -4.081150 -0.603755 -1.774924 14.135726 -1.343422 -3.876679 45.359413 10.585000 -7.724309 -9.432553 -0.909451 -3.802009 17.430523 -3.088784 1.454317 48.226299 -3.120090 0.724222 
0.000000 42.014908 0.240040 -2.372530 0.628675 2.030900 0.000000 0.000000 0.000000 0.000000 0.000000 0.000000 0.000000 0.000000 0.000000 4.255911 5.901293 -2.086651 -0.911180 0.055734 7.189234 0.000000 0.000000 0.000000 14.689506 -0.245973 1.906740 -82.153900 6.660069 6.427420 -18.302797 0.537906 29.719843 5.842918 8.590523 1.074152 -16.257103 0.628437 -5.404400 75.190910 1.514764 20.307718 12.377350 7.634068 -9.301213 -9.247010 -2.941850 7.280370 -4.163905 -0.247242 -1.753764 14.679605 -1.488054 -3.908286 45.359425 10.585001 -7.724311 -9.412623 -1.258379 -3.829962 18.262968 -3.419208 1.438268 48.226307 -3.120091 0.724222 
0.000000 42.014908 0.240040 -2.372530 0.628675 2.030900 0.000000 0.000000 0.000000 0.000000 0.000000 0.000000 0.000000 0.000000 0.000000 4.255911 5.901294 -2.086651 -0.911181 0.055734 7.189236 0.000000 0.000000 0.000000 14.689507 -0.245973 1.906741 -81.623726 5.103414 6.524844 -18.298115 0.580841 29.719013 5.868842 8.608028 1.078508 -16.257105 0.628437 -5.404401 75.015480 0.684340 20.297184 12.390492 7.576600 -9.301702 -9.247010 -2.941850 7.280370 -4.289299 0.124873 -1.729064 15.079894 -1.594501 -3.931548 45.359428 10.585002 -7.724312 -9.433837 -1.602118 -3.859597 18.875635 -3.662396 1.426457 48.226311 -3.120091 0.724223 
0.000000 42.014908 0.240040 -2.372530 0.628675 2.030900 0.000000 0.000000 0.000000 0.000000 0.000000 0.000000 0.000000 0.000000 0.000000 4.255911 5.901294 -2.086651 -0.911180 0.055734 7.189235 0.000000 0.000000 0.000000 14.689506 -0.245973 1.906741 -80.932465 3.635136 6.641613 -18.283243 0.717125 29.716373 5.951128 8.663589 1.092331 -16.257103 0.628437 -5.404400 74.930809 -0.166612 20.291204 12.432202 7.394183 -9.303249 -9.247010 -2.941850 7.280370 -4.423317 0.427769 -1.706820 15.275861 -1.646614 -3.942936 45.359421 10.585001 -7.724312 -9.485510 -1.865164 -3.884098 19.175577 -3.781453 1.420674 48.226303 -3.120091 0.724222 
0.000000 42.014908 0.240040 -2.372530 0.628675 2.030900 0.000000 0.000000 0.000000 0.000000 0.000000 0.000000 0.000000 0.000000 0.000000 4.255911 5.901293 -2.086651 -0.911180 0.055734 7.189234 0.000000 0.000000 0.000000 14.689505 -0.245973 1.906741 -80.245117 2.644262 6.749154 -18.261097 0.920113 29.712446 6.073689 8.746342 1.112920 -16.257101 0.628437 -5.404399 74.967010 -0.819056 20.291740 12.494328 7.122483 -9.305554 -9.247010 -2.941850 7.280370 -4.531948 0.576625 -1.693024 15.206775 -1.628242 -3.938921 45.359417 10.585001 -7.724311 -9.556958 -1.972008 -3.896642 19.069836 -3.739480 1.422713 48.226299 -3.120090 0.724222 
0.000000 42.014908 0.240040 -2.372530 0.628675 2.030900 0.000000 0.000000 0.000000 0.000000 0.000000 0.000000 0.000000 0.000000 0.000000 4.255911 5.901293 -2.086651 -0.911180 0.055734 7.189233 0.000000 0.000000 0.000000 14.689504 -0.245973 1.906740 -79.726677 2.519815 6.818889 -18.234264 1.166078 29.707691 6.222198 8.846616 1.137868 -16.257101 0.628437 -5.404399 75.154198 -1.053960 20.300755 12.569606 6.793259 -9.308349 -9.247010 -2.941850 7.280370 -4.581179 0.486619 -1.693670 14.811904 -1.523235 -3.915974 45.359413 10.585001 -7.724311 -9.637501 -1.847147 -3.890413 18.465458 -3.499583 1.434365 48.226303 -3.120090 0.724222 
0.000000 42.014908 0.240040 -2.372530 0.628675 2.030900 0.000000 0.000000 0.000000 0.000000 0.000000 0.000000 0.000000 0.000000 0.000000 4.255911 5.901292 -2.086651 -0.911180 0.055734 7.189231 0.000000 0.000000 0.000000 14.689503 -0.245973 1.906740 -79.494072 3.495751 6.831329 -18.205034 1.434015 29.702515 6.383973 8.955847 1.165044 -16.257099 0.628437 -5.404399 75.502983 -0.733327 20.319056 12.651609 6.434623 -9.311393 -9.247010 -2.941850 7.280370 -4.549094 0.111195 -1.712266 14.071497 -1.326341 -3.872947 45.359409 10.585001 -7.724311 -9.717778 -1.450838 -3.861627 17.332209 -3.049759 1.456213 48.226303 -3.120090 0.724222 
0.000000 42.014908 0.240040 -2.372530 0.628675 2.030900 0.000000 0.000000 0.000000 0.000000 0.000000 0.000000 0.000000 0.000000 0.000000 4.255911 5.901291 -2.086650 -0.911180 0.055734 7.189230 0.000000 0.000000 0.000000 14.689501 -0.245973 1.906740 -79.458359 5.148157 6.805791 -18.175463 1.705079 29.697275 6.547636 9.066352 1.192538 -16.257099 0.628437 -5.404400 75.942169 -0.063681 20.342628 12.734571 6.071803 -9.314473 -9.247010 -2.941850 7.280370 -4.465277 -0.434365 -1.741780 13.138008 -1.078101 -3.818698 45.359406 10.585001 -7.724311 -9.794386 -0.894431 -3.819357 15.903435 -2.482632 1.483758 48.226299 -3.120090 0.724222 
0.000000 42.014908 0.240040 -2.372530 0.628675 2.030900 0.000000 0.000000 0.000000 0.000000 0.000000 0.000000 0.000000 0.000000 0.000000 4.255910 5.901291 -2.086650 -0.911180 0.055734 7.189230 0.000000 0.000000 0.000000 14.689500 -0.245973 1.906740 -79.507698 6.982225 6.765867 -18.147591 1.960573 29.692337 6.701898 9.170510 1.218453 -16.257099 0.628437 -5.404400 76.392014 0.711085 20.366951 12.812767 5.729825 -9.317376 -9.247010 -2.941850 7.280370 -4.364918 -1.017518 -1.774049 12.181438 -0.823723 -3.763109 45.359402 10.585001 -7.724311 -9.864679 -0.305330 -3.774047 14.439336 -1.901483 1.511985 48.226299 -3.120090 0.724222 
0.000000 42.014908 0.240040 -2.372530 0.628675 2.030900 0.000000 0.000000 0.000000 0.000000 0.000000 0.000000 0.000000 0.000000 0.000000 4.255910 5.901290 -2.086650 -0.911180 0.055734 7.189230 0.000000 0.000000 0.000000 14.689500 -0.245973 1.906740 -79.566299 8.542540 6.729740 -18.124800 2.169460 29.688299 6.828020 9.255670 1.239640 -16.257099 0.628437 -5.404400 76.767700 1.376090 20.387300 12.876700 5.450230 -9.319750 -9.247010 -2.941850 7.280370 -4.278170 -1.509450 -1.801410 11.382500 -0.611263 -3.716680 45.359402 10.585000 -7.724310 -9.921730 0.190525 -3.735800 13.216500 -1.416100 1.535560 48.226299 -3.120090 0.724222 
